<svg xmlns="http://www.w3.org/2000/svg" width="256" height="256" viewBox="0 0 256 256"><circle cx="128" cy="128" r="127" fill="#6dd110"/><path d="M97.8 160.7q7.7-16.1 18.3-35.3a423.9 423.9 0 0 1 24-38.3q13.4-19.1 19.6-25.4t10.4-9.9q4.3-3.7 15.1-5.4a116.6 116.6 0 0 1 16.4-1.7 8.4 8.4 0 0 1 6 2.3 7.8 7.8 0 0 1 2.4 5.9 8.6 8.6 0 0 1-1.4 4.9 43.5 43.5 0 0 1-5.7 6.1q-20.7 19-43.1 54.2t-35.5 68.2q-6.2 15.1-8 17.8a17.6 17.6 0 0 1-5.5 4.9q-3.7 2.3-15.1 2.3-9 0-11.6-1.1a14 14 0 0 1-3.9-2.4q-1.4-1.3-7.8-10.9t-19.1-24.1q-7.2-8-7.3-13.3 0-7.8 8.2-13.6t14.6-5.8q6.9 0 14.8 5.6a57.7 57.7 0 0 1 14.2 15z" fill="#fff"/></svg>
